<svg width="300" height="300" viewBox="0 0 300 300" fill="none" xmlns="http://www.w3.org/2000/svg">
<rect width="300" height="300" fill="#E5E5E5"/>
<g filter="url(#filter0_d)">
<path fill-rule="evenodd" clip-rule="evenodd" d="M94.9844 206.022C112.226 219.267 129.467 229.863 146.709 229.863C163.95 229.863 181.191 219.267 198.433 206.022C184.221 201.453 177.013 194.633 176.807 185.562C176.811 183.945 176.818 181.648 176.829 177.336C176.83 176.651 176.832 175.95 176.834 175.232C176.862 163.669 176.908 148.415 176.972 132.914C190.451 114.46 185.5 92.825 181.276 93.3646C176.093 94.0265 131.231 49.0587 122.626 46.7579C114.021 44.457 92.1631 51.8909 88.4013 72.6277C84.6396 93.3646 83.0672 145.634 97.3355 166.502C101.396 172.44 107.79 174.763 116.518 173.47C116.53 177.81 116.554 180.246 116.614 185.161C116.503 194.647 109.293 201.458 94.9844 206.022Z" fill="url(#paint0_linear)"/>
<mask id="mask0" mask-type="alpha" maskUnits="userSpaceOnUse" x="85" y="46" width="114" height="184">
<path fill-rule="evenodd" clip-rule="evenodd" d="M94.9844 206.022C112.226 219.267 129.467 229.863 146.709 229.863C163.95 229.863 181.191 219.267 198.433 206.022C184.221 201.453 177.013 194.633 176.807 185.562C176.811 183.945 176.818 181.648 176.829 177.336C176.83 176.651 176.832 175.95 176.834 175.232C176.862 163.669 176.908 148.415 176.972 132.914C190.451 114.46 185.5 92.825 181.276 93.3646C176.093 94.0265 131.231 49.0587 122.626 46.7579C114.021 44.457 92.1631 51.8909 88.4013 72.6277C84.6396 93.3646 83.0672 145.634 97.3355 166.502C101.396 172.44 107.79 174.763 116.518 173.47C116.53 177.81 116.554 180.246 116.614 185.161C116.503 194.647 109.293 201.458 94.9844 206.022Z" fill="white"/>
</mask>
<g mask="url(#mask0)">
<path d="M116.614 173.456C137.304 170.972 150.47 161.535 150.47 161.535C150.47 161.535 135.423 181.403 116.614 185.376V173.456Z" fill="#FC9F6A"/>
</g>
<path d="M183.856 133.224C190.335 116.763 216.301 83.2405 193.92 62.3796C186.396 23.6378 144.828 27.9258 117.085 36.8662C98.4386 42.875 84.3585 54.747 81.348 45.8066C62.5392 62.3796 71.9583 78.588 84.3586 83.2405C95.6121 87.4627 114.642 91.6842 146.997 87.7107C152.777 87.0009 151.566 105.699 154.655 107.721C159.288 110.753 162.885 91.6842 175.588 97.4098C188.291 103.135 180.754 129.684 167.117 129.684C162.415 129.684 160.064 143.34 172.76 149.797C181.975 154.581 179.646 143.919 183.856 133.224Z" fill="url(#paint1_linear)"/>
</g>
<path d="M245.455 236.344C254.408 255.573 259.561 299.92 259.561 299.92H33.8558C33.8558 299.92 39.0116 255.568 47.9624 236.344C56.9131 217.121 109.184 199.29 109.184 199.29C138.068 211.209 155.744 211.206 184.204 199.283C184.204 199.283 236.501 217.116 245.455 236.344Z" fill="url(#paint2_linear)"/>
<path d="M153.292 206.237L157.994 297.628H135.423L140.125 206.237C140.125 206.237 144.514 201.27 146.708 201.27C148.903 201.27 153.292 206.237 153.292 206.237Z" fill="#F25F5C"/>
<path d="M154.363 224.805L139.575 215.78L140.125 206.237C143.051 202.926 145.246 201.27 146.708 201.27C148.171 201.27 150.366 202.926 153.292 206.237L154.363 224.805V224.805Z" fill="#645050"/>
<mask id="mask1" mask-type="alpha" maskUnits="userSpaceOnUse" x="139" y="201" width="16" height="24">
<path d="M154.363 224.805L139.575 215.78L140.125 206.237C143.051 202.926 145.246 201.27 146.708 201.27C148.171 201.27 150.366 202.926 153.292 206.237L154.363 224.805V224.805Z" fill="white"/>
</mask>
<g mask="url(#mask1)">
</g>
<path fill-rule="evenodd" clip-rule="evenodd" d="M146.708 201.262L156.113 219.151L185.266 200.277L176.802 187.363L146.708 199.106L116.614 187.363L108.15 200.277L137.304 219.151L146.708 201.262Z" fill="#EAEAEA"/>
<defs>
<filter id="filter0_d" x="58.7081" y="25.7947" width="156.14" height="223.069" filterUnits="userSpaceOnUse" color-interpolation-filters="sRGB">
<feFlood flood-opacity="0" result="BackgroundImageFix"/>
<feColorMatrix in="SourceAlpha" type="matrix" values="0 0 0 0 0 0 0 0 0 0 0 0 0 0 0 0 0 0 127 0"/>
<feOffset dy="7"/>
<feGaussianBlur stdDeviation="6"/>
<feColorMatrix type="matrix" values="0 0 0 0 0 0 0 0 0 0 0 0 0 0 0.145098 0 0 0 0.04 0"/>
<feBlend mode="normal" in2="BackgroundImageFix" result="effect1_dropShadow"/>
<feBlend mode="normal" in="SourceGraphic" in2="effect1_dropShadow" result="shape"/>
</filter>
<linearGradient id="paint0_linear" x1="198.433" y1="46.3557" x2="198.433" y2="229.863" gradientUnits="userSpaceOnUse">
<stop stop-color="#F7B186"/>
<stop offset="1" stop-color="#FFC299"/>
</linearGradient>
<linearGradient id="paint1_linear" x1="202.848" y1="30.7947" x2="202.848" y2="150.973" gradientUnits="userSpaceOnUse">
<stop stop-color="#1D0024"/>
<stop offset="1" stop-color="#100014"/>
</linearGradient>
<linearGradient id="paint2_linear" x1="33.8558" y1="199.283" x2="33.8558" y2="299.92" gradientUnits="userSpaceOnUse">
<stop stop-color="#1D0024"/>
<stop offset="1" stop-color="#100014"/>
</linearGradient>
</defs>
</svg>
