<svg width="300" height="300" viewBox="0 0 300 300" fill="none" xmlns="http://www.w3.org/2000/svg">
<path d="M150 300C232.843 300 300 232.843 300 150C300 67.1573 232.843 0 150 0C67.1573 0 0 67.1573 0 150C0 232.843 67.1573 300 150 300Z" fill="#E5E5E5"/>
<mask id="mask0" mask-type="alpha" maskUnits="userSpaceOnUse" x="0" y="0" width="300" height="300">
<path d="M150 300C232.843 300 300 232.843 300 150C300 67.1573 232.843 0 150 0C67.1573 0 0 67.1573 0 150C0 232.843 67.1573 300 150 300Z" fill="white"/>
</mask>
<g mask="url(#mask0)">
<path fill-rule="evenodd" clip-rule="evenodd" d="M182 176V198.5C182 202.833 118 201.376 118 195.128C118 189.248 118.12 162.602 118 135.188C103.668 116.611 103.668 105 115 93C126.332 81 207 75 207 75C207 75 213.053 133.21 214 149C214.381 155.35 218.5 176 202.5 176C193.504 176 182 176 182 176Z" fill="url(#paint0_linear)"/>
<g style="mix-blend-mode:multiply">
<path d="M181.976 174.078C159.976 171.578 145 162 145 162C145 162 153 181 181.976 186.156V174.078Z" fill="#FFD7B8"/>
</g>
<path d="M255 243.308C261.347 256.212 266.347 277.546 270 307.308H30C33.6549 277.542 38.6549 256.209 45 243.308C51.3242 230.449 110 205.699 110 205.699C110 205.699 111.168 194.385 114 192.764C116.832 191.142 182.627 191.142 186 192.764C189.373 194.385 190 205.692 190 205.692C190 205.692 248.688 230.475 255 243.308Z" fill="#001A5D"/>
<path fill-rule="evenodd" clip-rule="evenodd" d="M131.02 105.205C127.84 102.474 123.976 100.635 118.514 103.473C105.565 110.201 114.159 136.135 128.65 135.629C133.647 135.454 131.358 145.419 118 152C118 141.5 102 115.5 100.605 91.8275C84.5 85.8327 88.5 61.8458 99.5576 61.8458C97.789 39.8543 133 28.5 146.634 41.116C160.5 24.5 195.5 33 197.614 47.4149C221.68 34.5672 237.5 71.5 214.965 85.8327C205.692 91.7303 184 93.9778 152.687 93.9778C137.661 93.9778 146.303 129.148 151 140.5C157 155 190.5 157 201 155.5C209.199 154.329 213.5 151 214 149C221.5 169 212 181 197 181C171.5 181 146 173.5 142 155C138.817 140.277 138.991 116.516 131.02 105.205Z" fill="#F25F5C"/>
</g>
<defs>
<linearGradient id="paint0_linear" x1="106.843" y1="75" x2="106.843" y2="200.987" gradientUnits="userSpaceOnUse">
<stop stop-color="#FFD4B3"/>
<stop offset="1" stop-color="#FFDCC2"/>
</linearGradient>
</defs>
</svg>
