<svg width="879" height="1024" viewBox="0 0 879 1024" fill="none" xmlns="http://www.w3.org/2000/svg">
<path d="M6.52726 1031.97L885.546 1026.41L879.053 -0.553468L20.0351 -0.569166L372.289 516.153L6.52726 1031.97Z" fill="url(#paint0_linear)"/>
<g clip-path="url(#clip0)">
<path d="M347.981 649.691L876.981 649.768L876.981 649.522L347.981 649.445L347.981 649.691Z" fill="#E7E7E7"/>
<path d="M445.003 664.683L480.046 664.688L480.046 664.441L445.003 664.436L445.003 664.683Z" fill="#E7E7E7"/>
<path d="M413.606 664.678L433.912 664.681L433.912 664.434L413.606 664.431L413.606 664.678Z" fill="#E7E7E7"/>
<path d="M550.44 668.342L570.746 668.345L570.746 668.098L550.44 668.095L550.44 668.342Z" fill="#E7E7E7"/>
<path d="M630.912 673.881L676.61 673.888L676.61 673.641L630.912 673.634L630.912 673.881Z" fill="#E7E7E7"/>
<path d="M614.791 673.879L621.492 673.88L621.492 673.633L614.791 673.632L614.791 673.879Z" fill="#E7E7E7"/>
<path d="M728.506 668.368L827.615 668.382L827.615 668.135L728.506 668.121L728.506 668.368Z" fill="#E7E7E7"/>
<path d="M394.49 325.527C391.306 325.526 388.715 327.95 388.715 330.929L388.676 599.646C388.675 602.626 391.265 605.05 394.45 605.05L598.748 605.08C601.931 605.08 604.522 602.657 604.523 599.677L604.562 330.961C604.562 327.981 601.971 325.557 598.789 325.557L394.49 325.527ZM598.748 605.328L394.45 605.298C391.12 605.297 388.411 602.763 388.411 599.646L388.45 330.929C388.451 327.814 391.161 325.279 394.49 325.279L598.789 325.309C602.117 325.309 604.827 327.845 604.826 330.961L604.787 599.678C604.787 602.794 602.077 605.328 598.748 605.328" fill="#E7E7E7"/>
<path d="M623.332 325.56C620.149 325.56 617.558 327.983 617.558 330.963L617.519 599.679C617.519 602.659 620.108 605.083 623.292 605.084L827.59 605.113C830.774 605.114 833.365 602.691 833.366 599.711L833.405 330.994C833.405 328.014 830.815 325.59 827.631 325.59L623.332 325.56ZM827.59 605.361L623.292 605.331C619.963 605.331 617.254 602.796 617.254 599.679L617.293 330.963C617.294 327.847 620.004 325.312 623.332 325.313L827.631 325.342C830.961 325.343 833.67 327.878 833.669 330.994L833.63 599.711C833.63 602.827 830.92 605.361 827.59 605.361" fill="#E7E7E7"/>
<path d="M630.889 651.28L607.625 651.277L607.637 564.915L630.901 564.919L630.889 651.28Z" fill="#E1E1E1"/>
<path d="M626.47 651.28L630.89 651.28L630.891 639.519L621.839 639.518L626.47 651.28Z" fill="#FAFAFA"/>
<path d="M528.945 651.266L505.681 651.262L505.694 564.901L528.958 564.904L528.945 651.266Z" fill="#E1E1E1"/>
<path d="M630.89 644.063L525.09 644.048L525.101 564.903L630.901 564.919L630.89 644.063Z" fill="#FAFAFA"/>
<path d="M627.473 568.426L528.528 568.411L528.525 590.116L627.47 590.131L627.473 568.426ZM627.062 589.747L528.933 589.733L528.936 568.795L627.065 568.809L627.062 589.747Z" fill="#E1E1E1"/>
<path d="M529.507 651.266L525.089 651.265L525.091 639.504L534.142 639.505L529.507 651.266Z" fill="#FAFAFA"/>
<path d="M575.66 579.27C575.659 580.48 576.707 581.46 577.999 581.46C579.291 581.46 580.339 580.481 580.339 579.271C580.339 578.061 579.292 577.081 577.999 577.081C576.707 577.08 575.66 578.06 575.66 579.27Z" fill="#E7E7E7"/>
<path d="M627.469 593.637L528.524 593.623L528.521 615.328L627.466 615.342L627.469 593.637ZM627.058 614.96L528.93 614.945L528.933 594.006L627.061 594.02L627.058 614.96Z" fill="#E1E1E1"/>
<path d="M575.656 604.482C575.656 605.692 576.703 606.672 577.995 606.672C579.288 606.673 580.335 605.693 580.335 604.483C580.336 603.273 579.288 602.294 577.996 602.294C576.704 602.294 575.656 603.272 575.656 604.482Z" fill="#E7E7E7"/>
<path d="M627.466 618.851L528.521 618.836L528.517 640.541L627.463 640.555L627.466 618.851ZM627.054 640.172L528.926 640.158L528.929 619.218L627.057 619.233L627.054 640.172Z" fill="#E1E1E1"/>
<path d="M575.652 629.695C575.652 630.904 576.699 631.884 577.991 631.885C579.284 631.885 580.332 630.905 580.332 629.696C580.332 628.486 579.285 627.506 577.992 627.506C576.7 627.506 575.652 628.486 575.652 629.695Z" fill="#E7E7E7"/>
<path d="M514.732 651.264L491.468 651.26L491.488 514.743L514.752 514.747L514.732 651.264Z" fill="#E1E1E1"/>
<path d="M510.314 651.263L514.733 651.264L514.735 639.502L505.682 639.501L510.314 651.263Z" fill="#FAFAFA"/>
<path d="M427.784 651.251L404.519 651.248L404.539 514.731L427.803 514.734L427.784 651.251Z" fill="#E1E1E1"/>
<path d="M514.733 644.047L423.927 644.033L423.946 514.733L514.752 514.747L514.733 644.047Z" fill="#FAFAFA"/>
<path d="M511.324 517.957L427.373 517.944L427.369 548.121L511.319 548.133L511.324 517.957ZM510.838 547.681L427.853 547.669L427.857 518.395L510.842 518.407L510.838 547.681Z" fill="#E1E1E1"/>
<path d="M511.319 550.789L470.827 550.783L470.816 629.338L511.307 629.344L511.319 550.789ZM510.826 628.891L471.298 628.885L471.309 551.234L510.837 551.239L510.826 628.891Z" fill="#E1E1E1"/>
<path d="M467.862 550.783L427.37 550.777L427.358 629.331L467.85 629.337L467.862 550.783ZM467.368 628.885L427.84 628.879L427.851 551.227L467.379 551.233L467.368 628.885Z" fill="#E1E1E1"/>
<path d="M428.345 651.251L423.927 651.25L423.929 639.489L432.98 639.49L428.345 651.251Z" fill="#FAFAFA"/>
<path d="M467.007 533.038C467.007 534.247 468.054 535.228 469.346 535.228C470.639 535.228 471.686 534.248 471.687 533.038C471.687 531.829 470.639 530.849 469.347 530.849C468.055 530.849 467.007 531.829 467.007 533.038Z" fill="#E7E7E7"/>
<path d="M475.377 588.208C475.376 589.418 476.424 590.398 477.716 590.398C479.008 590.399 480.056 589.419 480.056 588.209C480.056 586.999 479.009 586.019 477.716 586.019C476.424 586.018 475.377 586.998 475.377 588.208Z" fill="#E7E7E7"/>
<path d="M458.621 588.206C458.621 589.416 459.668 590.396 460.96 590.396C462.253 590.396 463.301 589.416 463.301 588.206C463.301 586.997 462.254 586.016 460.961 586.016C459.669 586.016 458.621 586.996 458.621 588.206Z" fill="#E7E7E7"/>
<path d="M456.001 476.675L446.187 476.674C446.187 476.674 447.889 485.163 447.889 490.159C447.888 495.154 440.42 514.735 451.089 514.737C461.756 514.738 454.295 495.155 454.296 490.16C454.297 485.164 456.001 476.675 456.001 476.675Z" fill="#E1E1E1"/>
<path d="M418.681 496.747L418.68 502.713C418.679 509.324 424.458 514.733 431.524 514.734L437.899 514.735C444.964 514.736 450.745 509.328 450.746 502.718L450.747 496.751L418.681 496.747Z" fill="#F5F5F5"/>
<path d="M555.01 552.321C555.009 559.244 563.294 564.909 573.421 564.91L582.561 564.911C592.687 564.913 600.974 559.25 600.975 552.328L555.01 552.321Z" fill="#E1E1E1"/>
<path d="M797.23 542.224C791.686 546.457 784.033 554.21 777.019 565.117C772.349 572.381 769.534 579.992 768.295 590.049C768.325 578.665 768.364 566.434 768.408 554.891C769.817 551.92 773.034 545.074 775.343 539.665C783.043 521.618 785.912 517.18 792.839 501.612C802.076 480.85 811.545 456.213 808.835 458.181C803.312 462.193 782.146 499.266 779.858 504.573C771.988 522.828 769.794 536.134 768.43 548.975C768.475 538.134 768.522 528.177 768.567 520.497C768.712 495.441 769.169 487.355 769.392 484.861C770.248 483.594 771.26 482.117 771.848 481.321C776.82 474.597 778.739 468.868 783.422 458.838C790.062 444.625 795.781 419.391 794.109 420.664C787.152 425.963 781.662 437.356 774.449 451.873C767.236 466.389 769.296 474.739 767.864 487.139C767.563 489.572 767.332 498.754 767.164 511.481C765.297 497.922 761.789 488.986 755.389 480.866C747.517 470.879 739.902 464.132 734.313 460.609C728.724 457.086 743.96 481.618 751.246 492.325C757.735 501.862 763.711 510.275 767.081 518.562C766.9 535.81 766.815 557.651 766.811 577.982C765.14 568.729 762.412 558.766 758.771 551.051C754.397 541.781 747.666 527.563 742.309 522.739C741.022 521.58 747.908 549.233 752.329 556.587C756.75 563.939 759.996 570.869 762.778 575.037C763.427 576.01 765.581 579.76 766.811 581.917C766.82 606.737 766.951 628.636 767.181 636.091L768.327 636.091C768.249 634.169 768.238 621.543 768.265 604.833C771.025 595.76 777.338 585.408 782.548 575.962C788.234 565.654 802.775 537.99 797.23 542.224Z" fill="#E1E1E1"/>
<path d="M784.343 651.303L751.181 651.298L748.683 620.881L786.85 620.886L784.343 651.303Z" fill="#F0F0F0"/>
<path d="M789.321 624.431L746.211 624.425L744.978 614.162L790.558 614.169L789.321 624.431Z" fill="#F5F5F5"/>
<path d="M479.482 406.564L420.179 406.556L420.188 345.622L479.491 345.631L479.482 406.564Z" fill="#E1E1E1"/>
<path d="M485.907 406.565L424.651 406.556L424.66 345.623L485.915 345.632L485.907 406.565Z" fill="#F5F5F5"/>
<path d="M429.79 350.426L480.782 350.433L480.775 401.764L429.782 401.756L429.79 350.426Z" fill="white"/>
<path d="M442.148 362.869L468.421 362.873L468.417 389.32L442.144 389.316L442.148 362.869Z" fill="#F5F5F5"/>
<path d="M781.85 409.383L726.76 409.375L726.768 352.77L781.858 352.778L781.85 409.383Z" fill="#E1E1E1"/>
<path d="M787.816 409.384L730.912 409.376L730.921 352.77L787.824 352.779L787.816 409.384Z" fill="#F5F5F5"/>
<path d="M735.687 357.232L783.056 357.239L783.049 404.922L735.68 404.915L735.687 357.232Z" fill="white"/>
<path d="M774.147 381.079C774.146 388.716 767.528 394.907 759.366 394.906C751.204 394.904 744.589 388.712 744.59 381.075C744.591 373.438 751.208 367.248 759.37 367.249C767.532 367.25 774.148 373.443 774.147 381.079Z" fill="#F5F5F5"/>
<path d="M541.088 427.174L497.095 427.168L497.102 381.966L541.094 381.973L541.088 427.174Z" fill="#E1E1E1"/>
<path d="M545.853 427.175L500.412 427.168L500.418 381.967L545.86 381.973L545.853 427.175Z" fill="#F5F5F5"/>
<path d="M504.225 385.529L542.051 385.535L542.046 423.612L504.219 423.607L504.225 385.529Z" fill="white"/>
<path d="M523.137 394.945L512.789 411.711L533.479 411.714L523.137 394.945Z" fill="#F5F5F5"/>
<path d="M490.259 506.258C552.18 566.017 633.568 607.458 709.025 540.567C747.922 506.085 799.334 412.936 748.622 370.301C678.734 311.542 638.607 407.662 586.345 420.679C550.523 429.602 520.416 378.139 477.527 412.492C443.622 439.648 464.517 481.414 490.259 506.258Z" fill="#F5F5F5"/>
<path d="M817.61 683.013C817.61 689.205 725.767 694.21 612.474 694.193C499.181 694.177 407.341 689.145 407.342 682.954C407.343 676.762 499.185 671.757 612.477 671.774C725.77 671.79 817.611 676.822 817.61 683.013Z" fill="#F5F5F5"/>
<path d="M717.514 432.72L707.021 428.737C707.021 428.737 693.169 452.369 689.201 453.562C683.804 455.183 672.64 459.696 666.006 460.541C665.112 461.519 663.637 464.603 663.777 465.728C672.677 468.506 692.228 464.821 696.415 461.913C705.956 455.284 717.514 432.72 717.514 432.72Z" fill="#FF8B7B"/>
<path d="M720.747 427.359C722.699 434.129 712.095 447.728 712.095 447.728L698.171 440.417C698.171 440.417 700.768 434.827 703.947 429.133C709.081 419.939 718.519 419.631 720.747 427.359Z" fill="#3C91E6"/>
<g opacity="0.199997">
<g opacity="0.199997">
<path opacity="0.199997" d="M720.747 427.359C722.699 434.129 712.095 447.728 712.095 447.728L698.171 440.417C698.171 440.417 700.768 434.827 703.947 429.133C709.081 419.939 718.519 419.631 720.747 427.359Z" fill="black"/>
</g>
</g>
<g opacity="0.199997">
<g opacity="0.199997">
<path opacity="0.199997" d="M703.723 443.327L709.192 446.197L710.15 430.49C706.975 432.778 704.724 439.666 703.723 443.327Z" fill="black"/>
</g>
</g>
<path d="M711.609 422.256C711.609 422.256 700.793 444.763 707.09 486.682L749.697 486.688C750.374 480.568 748.139 450.713 756.258 421.879C756.258 421.879 749.042 420.507 742.101 420.192C736.673 419.945 728.802 419.782 723.991 420.19C717.647 420.728 711.609 422.256 711.609 422.256Z" fill="#3C91E6"/>
<g opacity="0.199997">
<g opacity="0.199997">
<path opacity="0.199997" d="M711.609 422.256C711.609 422.256 700.793 444.763 707.09 486.682L749.697 486.688C750.374 480.568 748.139 450.713 756.258 421.879C756.258 421.879 749.042 420.507 742.101 420.192C736.673 419.945 728.802 419.782 723.991 420.19C717.647 420.728 711.609 422.256 711.609 422.256Z" fill="black"/>
</g>
</g>
<path d="M701.69 683.891C701.623 684.954 717.777 685.818 737.77 685.821C757.763 685.824 774.023 684.965 774.091 683.901C774.158 682.839 758.005 681.974 738.011 681.972C718.018 681.969 701.756 682.829 701.69 683.891Z" fill="#E7EDF2"/>
<path d="M737.662 672.963L730.08 675.696L723.568 659.908L731.15 657.176L737.662 672.963Z" fill="#FF8B7B"/>
<path d="M763.825 676.289L755.86 676.288L752.94 659.026L760.905 659.027L763.825 676.289Z" fill="#FF8B7B"/>
<path d="M755.348 675.425L764.297 675.426C764.623 675.426 764.892 675.638 764.943 675.936L766.1 682.561C766.221 683.248 765.603 683.899 764.85 683.887C761.729 683.836 760.223 683.664 756.288 683.664C753.866 683.663 748.863 683.898 745.52 683.898C742.249 683.897 741.934 680.803 743.321 680.522C749.537 679.268 751.957 677.536 754.026 675.883C754.4 675.585 754.872 675.425 755.348 675.425Z" fill="#1A2E35"/>
<path d="M728.829 672.812L737.315 670.504C737.633 670.418 737.96 670.547 738.101 670.812L741.244 676.75C741.571 677.364 741.186 678.137 740.448 678.325C737.374 679.108 735.308 679.6 731.46 680.646C728.802 681.369 726.097 682.547 723.471 683.329C721.651 683.872 717.38 683.893 715.167 683.893C711.897 683.892 711.17 680.667 712.57 680.518C716.117 680.147 716.594 680.32 718.552 679.4C721.789 677.881 724.294 676.623 727.097 673.877C727.587 673.398 728.158 672.994 728.829 672.812Z" fill="#1A2E35"/>
<path d="M667.348 460.47L658.583 457.018L654.974 466.104C654.974 466.104 660.032 466.963 665.809 466.105L667.348 460.47Z" fill="#FF8B7B"/>
<path d="M652.068 456.794L651.836 462.839L654.973 466.104L658.582 457.018L652.068 456.794Z" fill="#FF8B7B"/>
<path d="M723.571 659.913L726.926 668.051L734.512 665.317L731.156 657.178L723.571 659.913Z" fill="#EA7064"/>
<path d="M760.908 659.032L752.94 659.031L754.448 667.929L762.417 667.93L760.908 659.032Z" fill="#EA7064"/>
<g opacity="0.199997">
<g opacity="0.199997">
<path opacity="0.199997" d="M705.74 475.343C705.894 477.134 706.077 478.966 706.305 480.848L737.988 471.228C742.935 469.845 747.242 466.936 750.177 462.959C750.297 460.314 750.462 457.537 750.7 454.637C750.809 453.222 750.94 451.778 751.082 450.313C751.234 448.787 751.408 447.231 751.605 445.664L705.74 475.343Z" fill="black"/>
</g>
</g>
<path d="M716.089 442.874L715.009 442.753C715.64 437.814 719.581 433.91 723.745 434.003L723.713 435.02C720.119 434.923 716.654 438.444 716.089 442.874Z" fill="white"/>
<path d="M721.724 452.016C721.665 452.016 721.606 452.016 721.547 452.014L721.578 450.997C725.217 451.122 728.635 447.574 729.202 443.144L730.281 443.264C729.66 448.134 725.843 452.017 721.724 452.016Z" fill="white"/>
<path d="M741.506 401.109C740.021 406.561 738.254 416.552 742.101 420.192C742.101 420.192 739.412 425.723 728.585 425.721C718.69 425.72 723.991 420.189 723.991 420.189C730.581 418.739 730.696 414.226 729.83 409.99L741.506 401.109Z" fill="#FF8B7B"/>
<path d="M736.746 404.732L729.835 409.985C730.043 410.988 730.191 412.005 730.204 412.993C732.225 414.876 736.28 410.109 736.695 407.677C736.902 406.464 736.921 405.298 736.746 404.732Z" fill="#EA7064"/>
<path d="M717.962 401.038C718.974 402.736 720.761 403.792 722.449 404.143C724.991 404.673 726.267 402.487 725.566 400.286C724.936 398.305 722.856 395.642 720.303 396.098C717.788 396.547 716.803 399.097 717.962 401.038Z" fill="#EA7064"/>
<path d="M722.156 383.586C718.199 385.281 716.802 399.991 721.778 402.166C726.751 404.341 729.652 380.374 722.156 383.586Z" fill="#1A2E35"/>
<path d="M742.714 392.903C741.766 400.286 741.611 404.631 737.388 408.42C731.035 414.12 721.507 410.737 720.087 403.367C718.809 396.733 720.575 385.773 728.484 382.836C736.274 379.941 743.663 385.52 742.714 392.903Z" fill="#FF8B7B"/>
<path d="M729.717 387.413C735.57 386.012 739.879 385.059 738.34 389.631C736.292 395.721 733.835 401.621 737.13 401.896C739.133 402.064 748.022 398.536 746.894 394.967C745.912 391.859 750.043 391.021 750.805 389.436C753.549 383.728 745.71 384.468 747.107 381.014C748.466 377.652 740.793 371.967 736.54 374.743C729.656 379.237 717.829 379.171 724.049 371.798C728.503 366.518 720.556 367.601 720.556 367.601C720.556 367.601 725.356 370.266 717.276 374.383C708.713 378.748 716.55 390.563 729.717 387.413Z" fill="#1A2E35"/>
<path d="M745.767 401.042C744.542 402.74 742.623 403.795 740.889 404.146C738.284 404.675 737.281 402.488 738.257 400.288C739.135 398.307 741.552 395.645 744.047 396.102C746.504 396.552 747.169 399.102 745.767 401.042Z" fill="#FF8B7B"/>
<path d="M707.09 486.682C707.09 486.682 699.931 546.573 699.37 569.303C698.785 592.946 723.592 666.718 723.592 666.718L736.301 661.726C736.301 661.726 721.513 594.33 723.572 571.111C725.817 545.798 735.098 486.686 735.098 486.686L707.09 486.682Z" fill="#3C91E6"/>
<g opacity="0.199997">
<g opacity="0.199997">
<path opacity="0.199997" d="M724.861 503.13C719.162 514.197 722.996 536.082 726.083 549.052C727.258 539.897 728.651 529.957 729.979 520.76C729.851 506.619 728.677 495.704 724.861 503.13Z" fill="black"/>
</g>
</g>
<path d="M735.727 657.843C735.786 657.82 737.233 661.633 737.233 661.633L722.585 667.386L720.277 663.371L735.727 657.843Z" fill="#3C91E6"/>
<path d="M722.205 486.684C722.205 486.684 727.668 543.647 731.29 564.989C735.258 588.359 750.843 666.206 750.843 666.206L765.433 666.208C765.433 666.208 756.702 590.248 755.055 567.11C753.265 541.998 749.696 486.688 749.696 486.688L722.205 486.684Z" fill="#3C91E6"/>
<path d="M765.657 662.65C765.719 662.65 766.144 666.466 766.144 666.466L750.108 666.463L748.964 662.082L765.657 662.65Z" fill="#3C91E6"/>
<g opacity="0.199997">
<g opacity="0.199997">
<path opacity="0.199997" d="M760.068 658.14C759.999 658.14 759.941 658.092 759.933 658.027C759.854 657.336 751.981 588.759 750.5 567.97C748.894 545.411 745.664 495.391 745.632 494.888C745.628 494.818 745.685 494.758 745.759 494.753L745.768 494.753C745.838 494.753 745.899 494.806 745.904 494.873C745.935 495.375 749.165 545.395 750.772 567.953C752.252 588.736 760.124 657.309 760.203 657.999C760.212 658.071 760.158 658.132 760.084 658.139C760.077 658.14 760.072 658.14 760.068 658.14Z" fill="black"/>
</g>
</g>
<path d="M730.616 394.965C730.579 395.566 730.207 396.054 729.788 396.054C729.368 396.054 729.058 395.566 729.096 394.965C729.133 394.364 729.504 393.876 729.924 393.876C730.344 393.876 730.654 394.364 730.616 394.965Z" fill="#1A2E35"/>
<path d="M723.354 394.964C723.317 395.565 722.945 396.053 722.525 396.053C722.105 396.053 721.795 395.565 721.834 394.964C721.872 394.363 722.242 393.875 722.662 393.875C723.082 393.875 723.392 394.363 723.354 394.964Z" fill="#1A2E35"/>
<path d="M725.644 395.263C725.644 395.263 723.965 398.731 722.252 400.405C723.327 401.397 725.287 400.944 725.287 400.944L725.644 395.263Z" fill="#FF5652"/>
<path d="M725.827 403.466C725.723 403.466 725.643 403.387 725.649 403.29C725.656 403.192 725.746 403.113 725.849 403.113C728.67 403.113 730.102 401.27 730.117 401.252C730.179 401.17 730.299 401.147 730.381 401.201C730.465 401.254 730.482 401.363 730.42 401.445C730.357 401.528 728.85 403.467 725.827 403.466Z" fill="#1A2E35"/>
<path d="M731.908 393.137C731.799 393.176 731.675 393.17 731.576 393.11C730.187 392.292 728.893 392.84 728.88 392.847C728.702 392.932 728.466 392.857 728.387 392.682C728.308 392.505 728.401 392.293 728.593 392.209C728.662 392.179 730.283 391.491 732.004 392.506C732.177 392.608 732.219 392.826 732.101 392.991C732.053 393.059 731.983 393.109 731.908 393.137Z" fill="#1A2E35"/>
<path d="M720.547 391.16C720.494 391.146 720.445 391.121 720.402 391.084C720.256 390.955 720.255 390.732 720.402 390.586C721.881 389.126 723.592 389.349 723.663 389.359C723.865 389.38 724 389.567 723.956 389.76C723.914 389.953 723.714 390.085 723.511 390.058C723.454 390.05 722.116 389.89 720.936 391.055C720.833 391.159 720.678 391.196 720.547 391.16Z" fill="#1A2E35"/>
<path d="M760.347 431.623L749.342 428.88C749.342 428.88 738.544 453.734 734.733 455.358C729.546 457.565 716.41 465.202 710.828 468.885C710.519 470.116 710.762 473.4 711.464 474.293C720.954 472.681 739.215 466.115 743.025 462.777C751.708 455.166 760.347 431.623 760.347 431.623Z" fill="#FF8B7B"/>
<path d="M751.545 675.184C751.446 675.184 751.362 675.198 751.298 675.228C751.245 675.253 751.183 675.298 751.167 675.435C751.128 675.716 751.199 675.926 751.381 676.075C751.794 676.42 752.833 676.466 754.201 676.211C753.331 675.723 752.155 675.184 751.545 675.184ZM752.631 676.726C752.026 676.726 751.465 676.629 751.122 676.347C750.85 676.121 750.738 675.807 750.79 675.412C750.828 675.119 751.004 674.98 751.144 674.914C752.044 674.492 754.528 675.968 754.809 676.137C754.871 676.176 754.9 676.246 754.883 676.318C754.867 676.386 754.807 676.442 754.733 676.459C754.171 676.584 753.368 676.726 752.631 676.726Z" fill="#3C91E6"/>
<path d="M753.27 673.442C753.243 673.442 753.214 673.445 753.184 673.447C752.938 673.475 752.909 673.582 752.898 673.626C752.766 674.117 753.705 675.351 754.487 675.934C754.435 675.305 754.259 674.05 753.693 673.597C753.564 673.494 753.426 673.443 753.27 673.442ZM754.688 676.464C754.658 676.464 754.626 676.457 754.6 676.443C753.801 676.024 752.31 674.391 752.532 673.559C752.571 673.41 752.706 673.148 753.16 673.097C753.458 673.062 753.722 673.14 753.95 673.324C754.832 674.032 754.886 676.183 754.887 676.273C754.889 676.338 754.852 676.401 754.792 676.434C754.76 676.454 754.724 676.464 754.688 676.464Z" fill="#3C91E6"/>
<path d="M722.817 674.314C722.673 674.347 722.559 674.393 722.484 674.455C722.417 674.511 722.393 674.574 722.403 674.664C722.431 674.901 722.54 675.065 722.738 675.165C723.3 675.451 724.604 675.226 726.283 674.569C725.103 674.337 723.56 674.145 722.817 674.314ZM724.537 675.49C723.759 675.666 723.015 675.719 722.542 675.478C722.241 675.325 722.067 675.07 722.028 674.722C722.003 674.515 722.078 674.334 722.243 674.198C723.096 673.487 726.546 674.251 726.938 674.34C727.014 674.358 727.068 674.419 727.072 674.495C727.075 674.57 727.027 674.64 726.952 674.673C726.312 674.946 725.402 675.294 724.537 675.49Z" fill="#3C91E6"/>
<path d="M724.416 672.183C724.379 672.191 724.343 672.203 724.306 672.214C723.977 672.322 723.98 672.448 723.981 672.489C723.994 673 725.514 673.94 726.588 674.258C726.374 673.711 725.859 672.608 725.106 672.261C724.878 672.156 724.652 672.129 724.416 672.183ZM726.917 674.683C726.89 674.689 726.864 674.689 726.838 674.686C725.812 674.509 723.623 673.369 723.602 672.517C723.598 672.318 723.698 672.045 724.199 671.882C724.563 671.755 724.938 671.78 725.289 671.942C726.438 672.473 727.039 674.374 727.065 674.455C727.083 674.514 727.065 674.579 727.018 674.627C726.992 674.656 726.955 674.676 726.917 674.683Z" fill="#3C91E6"/>
<path d="M711.725 468.301L700.691 473.051L699.411 475.965L703.488 478.531C703.488 478.531 711.097 477.758 713.266 473.183L711.725 468.301Z" fill="#FF8B7B"/>
<path d="M712.193 474.462C711.504 470.627 710.156 468.877 710.144 468.859L711.883 467.64C711.952 467.723 713.55 469.744 714.338 474.125L712.193 474.462Z" fill="#1A2E35"/>
<path d="M714.073 469.706C714.43 470.533 713.856 471.532 712.788 471.935C711.721 472.339 710.566 471.995 710.209 471.166C709.851 470.339 710.426 469.34 711.494 468.936C712.56 468.532 713.716 468.877 714.073 469.706Z" fill="#1A2E35"/>
<path d="M693.235 476.887L694.702 478.277L704.601 474.316L700.692 473.051L693.235 476.887Z" fill="#FF8B7B"/>
<g opacity="0.199997">
<g opacity="0.199997">
<path opacity="0.199997" d="M735.727 657.843C735.786 657.82 737.233 661.633 737.233 661.633L722.585 667.386L720.277 663.371L735.727 657.843Z" fill="black"/>
</g>
</g>
<g opacity="0.199997">
<g opacity="0.199997">
<path opacity="0.199997" d="M765.657 662.65C765.719 662.65 766.144 666.466 766.144 666.466L750.108 666.463L748.964 662.082L765.657 662.65Z" fill="black"/>
</g>
</g>
<path d="M763.216 428.775C766.126 437.554 754.791 449.544 754.791 449.544L739.083 443.542C739.083 443.542 741.298 437.165 745.512 428.622C750.3 418.911 760.279 419.915 763.216 428.775Z" fill="#3C91E6"/>
<g opacity="0.199997">
<g opacity="0.199997">
<path opacity="0.199997" d="M763.216 428.775C766.126 437.554 754.791 449.544 754.791 449.544L739.083 443.542C739.083 443.542 741.298 437.165 745.512 428.622C750.3 418.911 760.279 419.915 763.216 428.775Z" fill="black"/>
</g>
</g>
<path d="M607.103 341.788L600.346 341.787L600.346 340.77L607.104 340.771L607.103 341.788Z" fill="#007CFF"/>
<path d="M694.89 398.174L693.805 398.128L694.618 381.14L695.704 381.187L694.89 398.174Z" fill="#007CFF"/>
<path d="M692.523 345.361L567.68 345.343L556.024 588.603L680.867 588.621L692.523 345.361Z" fill="#3C91E6"/>
<g opacity="0.559998">
<g opacity="0.559998">
<path opacity="0.559998" d="M688.796 348.699L563.953 348.681L552.296 591.941L677.139 591.959L688.796 348.699Z" fill="#FAFAFA"/>
</g>
</g>
<g opacity="0.0700073">
<g opacity="0.0700073">
<path opacity="0.0700073" d="M685.069 352.036L560.226 352.018L548.569 595.278L673.412 595.297L685.069 352.036Z" fill="#FF5652"/>
</g>
</g>
<path d="M670.842 458.131L564.284 458.115L563.391 476.734L669.951 476.749L670.842 458.131Z" fill="white"/>
<path d="M622.895 444.546L564.934 444.537L564.535 452.867L622.496 452.875L622.895 444.546Z" fill="#FF8B7B"/>
<path d="M668.436 508.367L561.876 508.351L560.984 526.969L667.544 526.984L668.436 508.367Z" fill="white"/>
<path d="M610.364 494.78L562.527 494.773L562.128 503.103L609.965 503.11L610.364 494.78Z" fill="#FF8B7B"/>
<path d="M647.543 398.008C647.276 403.583 645.116 408.73 641.654 412.911C636.425 419.249 628.236 423.367 619.223 423.366C610.211 423.364 602.428 419.244 597.807 412.904C594.745 408.723 593.078 403.575 593.345 398C594.017 383.992 606.694 372.639 621.653 372.641C636.625 372.644 648.215 384 647.543 398.008Z" fill="white"/>
<path d="M650.096 377.955C650.025 379.436 649.451 380.804 648.531 381.915C647.141 383.599 644.965 384.693 642.57 384.693C640.175 384.693 638.108 383.597 636.88 381.913C636.066 380.802 635.623 379.434 635.694 377.953C635.873 374.231 639.241 371.215 643.217 371.215C647.195 371.216 650.274 374.233 650.096 377.955Z" fill="#007CFF"/>
<path d="M575.758 467.426C575.679 469.074 574.188 470.41 572.427 470.41C570.666 470.409 569.303 469.074 569.381 467.425C569.46 465.778 570.952 464.443 572.714 464.443C574.474 464.443 575.837 465.779 575.758 467.426Z" fill="#1A2E35"/>
<path d="M590.028 467.428C589.949 469.077 588.457 470.412 586.697 470.412C584.936 470.411 583.572 469.076 583.651 467.427C583.73 465.78 585.221 464.445 586.982 464.445C588.744 464.445 590.106 465.781 590.028 467.428Z" fill="#1A2E35"/>
<path d="M604.297 467.43C604.219 469.079 602.727 470.414 600.966 470.414C599.206 470.413 597.842 469.078 597.921 467.429C597.999 465.782 599.491 464.447 601.252 464.447C603.013 464.447 604.376 465.783 604.297 467.43Z" fill="#1A2E35"/>
<path d="M573.351 517.662C573.272 519.309 571.78 520.645 570.02 520.644C568.259 520.644 566.896 519.308 566.974 517.661C567.054 516.013 568.545 514.677 570.306 514.678C572.067 514.678 573.43 516.014 573.351 517.662Z" fill="#1A2E35"/>
<path d="M587.62 517.664C587.542 519.311 586.05 520.647 584.289 520.646C582.529 520.646 581.165 519.31 581.244 517.663C581.323 516.015 582.814 514.68 584.576 514.68C586.336 514.68 587.7 516.016 587.62 517.664Z" fill="#1A2E35"/>
<path d="M601.89 517.666C601.811 519.313 600.319 520.649 598.559 520.649C596.798 520.648 595.435 519.313 595.513 517.665C595.593 516.017 597.084 514.682 598.845 514.682C600.606 514.682 601.969 516.018 601.89 517.666Z" fill="#1A2E35"/>
<path d="M616.16 517.668C616.08 519.316 614.589 520.651 612.829 520.651C611.067 520.65 609.704 519.315 609.783 517.667C609.862 516.019 611.354 514.684 613.114 514.684C614.875 514.684 616.238 516.02 616.16 517.668Z" fill="#1A2E35"/>
<path d="M630.428 517.67C630.35 519.318 628.859 520.653 627.098 520.653C625.337 520.652 623.973 519.317 624.053 517.669C624.131 516.021 625.622 514.686 627.384 514.686C629.144 514.686 630.508 516.022 630.428 517.67Z" fill="#1A2E35"/>
<path d="M631.813 389.528C631.541 395.194 626.412 399.785 620.36 399.784C614.305 399.783 609.616 395.191 609.888 389.525C610.16 383.86 615.287 379.268 621.342 379.269C627.396 379.27 632.084 383.864 631.813 389.528Z" fill="#007CFF"/>
<path d="M641.654 412.911C636.425 419.248 628.236 423.367 619.224 423.366C610.211 423.365 602.428 419.243 597.807 412.904C602.95 408.114 611.09 405.002 620.103 405.004C629.127 405.005 636.969 408.119 641.654 412.911Z" fill="#007CFF"/>
<g opacity="0.100006">
<g opacity="0.100006">
<path opacity="0.100006" d="M636.078 392.668C635.807 398.334 630.678 402.925 624.625 402.924C618.57 402.923 613.882 398.331 614.154 392.665C614.425 387 619.553 382.409 625.608 382.409C631.662 382.41 636.35 387.004 636.078 392.668Z" fill="white"/>
</g>
</g>
<g opacity="0.100006">
<g opacity="0.100006">
<path opacity="0.100006" d="M641.654 412.911C636.425 419.248 628.236 423.367 619.224 423.366C610.211 423.365 602.428 419.243 597.807 412.904C602.95 408.114 611.09 405.002 620.103 405.004C629.127 405.005 636.969 408.119 641.654 412.911Z" fill="white"/>
</g>
</g>
<path d="M485.977 481.208C484.974 483.264 483.919 485.526 482.993 487.733C482.059 489.96 481.128 492.19 480.317 494.45C478.74 498.971 477.26 503.536 476.532 508.112L476.291 509.57C476.273 509.745 476.287 509.995 476.368 510.308C476.524 510.936 476.942 511.778 477.531 512.604C478.722 514.274 480.411 515.965 482.231 517.535C484.048 519.132 486.02 520.656 488.07 522.106C490.1 523.568 492.241 524.999 494.337 526.338L492.364 529.812C487.331 527.753 482.643 525.289 478.103 522.2C475.871 520.606 473.666 518.892 471.713 516.577C470.75 515.408 469.805 514.087 469.185 512.346C468.884 511.477 468.675 510.493 468.674 509.43C468.682 509.186 468.696 508.843 468.714 508.678L468.767 508.186L468.872 507.203C469.448 501.955 470.692 496.911 472.329 492.019C473.154 489.576 474.035 487.157 475.041 484.784C476.067 482.394 477.08 480.102 478.364 477.698L485.977 481.208Z" fill="#FF8B7B"/>
<path d="M492.854 525.749L500.33 522.201L498.398 529.89C498.398 529.89 493.264 531.229 490.877 528.899L492.854 525.749Z" fill="#FF8B7B"/>
<path d="M507.177 523.463L505.187 529.819L498.398 529.889L500.331 522.201L507.177 523.463Z" fill="#FF8B7B"/>
<path d="M517.749 444.145C517.749 444.145 518.397 446.377 519.425 448.06C518.541 448.831 517.748 448.563 517.748 448.563L517.749 444.145Z" fill="#FF5652"/>
<path d="M516.735 443.069C516.735 443.695 517.089 444.203 517.527 444.203C517.965 444.204 518.319 443.696 518.32 443.069C518.32 442.442 517.965 441.934 517.527 441.934C517.089 441.934 516.735 442.442 516.735 443.069Z" fill="#1A2E35"/>
<path d="M517.334 441.969L518.942 441.536C518.942 441.536 518.117 442.712 517.334 441.969Z" fill="#1A2E35"/>
<path d="M497.079 451.404C498.044 456.012 499.006 464.457 495.559 467.532C495.559 467.532 496.905 472.207 506.057 472.209C516.121 472.21 510.868 467.535 510.868 467.535C505.376 466.306 505.518 462.494 506.475 458.912L497.079 451.404Z" fill="#FF8B7B"/>
<path d="M494.41 440.915C494.913 448.609 494.951 451.875 499.103 455.825C505.349 461.767 515.338 459.505 517.301 451.825C519.069 444.913 517.948 433.492 509.9 430.428C501.971 427.41 493.906 433.222 494.41 440.915Z" fill="#FF8B7B"/>
<path d="M495.221 432.21C491.098 433.616 485.598 432.569 487.754 444.478C490.038 457.087 486.519 461.234 486.519 461.234C486.519 461.234 502.169 464.356 518.145 461.053C518.145 461.053 513.269 453.07 514.638 447.247C516.385 439.819 515.002 437.073 515.002 437.073C515.002 437.073 501.021 430.232 495.221 432.21Z" fill="#1A2E35"/>
<path d="M512.678 444.928C512.661 446.452 513.232 447.988 513.972 449.054C515.087 450.66 516.409 450.006 516.74 448.341C517.039 446.842 516.818 444.201 515.391 443.176C513.985 442.167 512.698 443.184 512.678 444.928Z" fill="#FF8B7B"/>
<path d="M491.64 433.556C490.45 430.442 496.105 425.654 508.058 427.648C520.01 429.641 520.533 438.944 520.533 438.944L518.115 436.257L518.223 439.086L505.939 441.293L491.64 433.556Z" fill="#1A2E35"/>
<path d="M492.648 468.055C492.483 467.104 493.167 466.207 494.182 466.051C497.906 465.476 506.365 464.312 510.623 464.865C513.786 465.276 514.623 467.005 514.756 468.418C514.855 469.467 513.928 470.349 512.806 470.303L494.408 469.522C493.524 469.484 492.79 468.872 492.648 468.055Z" fill="#3C91E6"/>
<g opacity="0.600006">
<g opacity="0.600006">
<path opacity="0.600006" d="M492.648 468.055C492.483 467.104 493.167 466.207 494.182 466.051C497.906 465.476 506.365 464.312 510.623 464.865C513.786 465.276 514.623 467.005 514.756 468.418C514.855 469.467 513.928 470.349 512.806 470.303L494.408 469.522C493.524 469.484 492.79 468.872 492.648 468.055Z" fill="black"/>
</g>
</g>
<path d="M503.255 641.015L510.073 645.446L521.492 630.968L514.675 626.537L503.255 641.015Z" fill="#FF8B7B"/>
<path d="M487.337 640.72L494.549 644.565L504.657 629.253L497.445 625.407L487.337 640.72Z" fill="#FF8B7B"/>
<path d="M521.488 630.971L515.603 638.434L508.783 634.002L514.667 626.538L521.488 630.971Z" fill="#EA7064"/>
<path d="M497.441 625.412L504.656 629.258L499.443 637.147L492.227 633.302L497.441 625.412Z" fill="#EA7064"/>
<path d="M509.026 516.401C509.026 516.401 535.663 547.823 530.66 577.866C526.619 602.132 503.236 634.988 503.236 634.988L492.244 629.874C492.244 629.874 504.191 608.038 512.036 584.89C515.327 575.182 513.927 564.486 507.779 556.082C494.287 537.637 472.665 548.608 487.213 516.398L509.026 516.401Z" fill="#3C91E6"/>
<g opacity="0.600006">
<g opacity="0.600006">
<path opacity="0.600006" d="M509.026 516.401C509.026 516.401 535.663 547.823 530.66 577.866C526.619 602.132 503.236 634.988 503.236 634.988L492.244 629.874C492.244 629.874 504.191 608.038 512.036 584.89C515.327 575.182 513.927 564.486 507.779 556.082C494.287 537.637 472.665 548.608 487.213 516.398L509.026 516.401Z" fill="black"/>
</g>
</g>
<g opacity="0.399994">
<g opacity="0.399994">
<path opacity="0.399994" d="M522.091 536.591L518.22 532.989C518.22 533.274 525.716 576.603 527.824 588.781C529.096 585.047 530.075 581.366 530.663 577.865C533.111 563.155 527.97 548.108 522.091 536.591Z" fill="black"/>
</g>
</g>
<path d="M520.924 516.403C520.924 516.403 552.995 555.889 553.894 579.565C554.648 599.403 518.945 637.717 518.945 637.717L508.583 631.442C508.583 631.442 529.46 604.203 534.718 581.935C532.717 559.893 489.719 516.398 489.719 516.398L520.924 516.403Z" fill="#3C91E6"/>
<g opacity="0.600006">
<g opacity="0.600006">
<path opacity="0.600006" d="M520.924 516.403C520.924 516.403 552.995 555.889 553.894 579.565C554.648 599.403 518.945 637.717 518.945 637.717L508.583 631.442C508.583 631.442 529.46 604.203 534.718 581.935C532.717 559.893 489.719 516.398 489.719 516.398L520.924 516.403Z" fill="black"/>
</g>
</g>
<path d="M481.244 469.295C477.809 470.053 474.524 481.721 474.524 481.721L487.92 490.092C487.92 490.092 492.386 480.87 490.828 476.829C489.205 472.621 485.583 468.338 481.244 469.295Z" fill="#3C91E6"/>
<g opacity="0.199997">
<g opacity="0.199997">
<path opacity="0.199997" d="M483.865 476.803L482.927 486.969L487.915 490.094C487.915 490.094 490.253 485.262 490.95 481.05L483.865 476.803Z" fill="black"/>
</g>
</g>
<path d="M524.898 469.526C524.898 469.526 528.851 470.83 520.925 516.403L487.214 516.398C487.78 503.56 487.797 495.644 481.244 469.295C481.244 469.295 488.308 467.857 495.56 467.532C501.233 467.277 505.881 467.109 510.867 467.535C517.442 468.097 524.898 469.526 524.898 469.526Z" fill="#3C91E6"/>
<path d="M528.32 476.763C529.084 478.739 529.891 480.875 530.732 482.927C531.539 485.01 532.377 487.087 533.241 489.157L535.834 495.375L536.49 496.93L536.819 497.707L536.984 498.095C537.013 498.165 537.007 498.158 536.997 498.152C536.952 498.133 536.912 497.937 536.257 497.534C535.935 497.347 535.395 497.166 534.875 497.156C534.351 497.138 533.935 497.257 533.698 497.355C533.221 497.568 533.214 497.659 533.224 497.645C533.255 497.63 533.353 497.542 533.461 497.42C533.924 496.901 534.482 496.005 534.973 495.114C535.474 494.205 535.946 493.235 536.418 492.252C537.355 490.278 538.207 488.22 539.073 486.157C539.931 484.089 540.738 481.991 541.538 479.886L543.948 473.568L548.025 474.531C547.217 479.05 546.174 483.476 544.93 487.918C544.323 490.144 543.62 492.351 542.817 494.579C542.416 495.694 541.968 496.807 541.454 497.941C540.919 499.085 540.39 500.211 539.443 501.522C539.195 501.853 538.912 502.203 538.52 502.589C538.104 502.969 537.625 503.429 536.592 503.864C536.078 504.07 535.363 504.254 534.537 504.222C533.716 504.2 532.883 503.928 532.306 503.593C531.133 502.892 530.728 502.225 530.382 501.723C530.22 501.472 530.083 501.212 529.988 501.025L529.787 500.641L529.387 499.873L528.586 498.335C527.542 496.275 526.518 494.204 525.547 492.109C524.587 490.01 523.651 487.9 522.742 485.773C521.874 483.613 521.015 481.521 520.252 479.224L528.32 476.763Z" fill="#FF8B7B"/>
<path d="M524.898 469.526C528.95 470.43 533.501 481.633 533.501 481.633L521.457 491.233C521.457 491.233 513.655 479.016 515.234 474.983C516.878 470.783 519.605 468.345 524.898 469.526Z" fill="#3C91E6"/>
<path d="M545.827 470.076L550.055 466.769L552.993 471.055L550.827 474.633C550.827 474.633 547.377 477.586 544.324 476.084C543.34 473.991 543.953 471.542 545.827 470.076Z" fill="#FF8B7B"/>
<path d="M557.726 466.78L557.41 467.857L550.714 468.908L550.055 466.769L557.726 466.78Z" fill="#FF8B7B"/>
<path d="M519.804 638.237L507.725 630.923L509.888 627.403L523.464 635.215L519.804 638.237Z" fill="#3C91E6"/>
<path d="M496.879 642.968C498.193 643.594 499.251 643.824 499.76 643.588C499.976 643.486 500.102 643.298 500.144 643.01C500.166 642.855 500.108 642.786 500.053 642.744C499.628 642.409 498.039 642.67 496.879 642.968ZM499.258 644.048C498.298 644.048 497.033 643.478 496.267 643.078C496.199 643.043 496.16 642.972 496.168 642.899C496.174 642.826 496.229 642.765 496.304 642.742C496.629 642.646 499.496 641.825 500.307 642.462C500.435 642.564 500.578 642.749 500.532 643.059C500.473 643.471 500.273 643.76 499.935 643.916C499.741 644.009 499.51 644.048 499.258 644.048Z" fill="#1A2E35"/>
<path d="M498.415 640.402C498.317 640.402 498.219 640.424 498.12 640.468C497.472 640.76 496.928 641.921 496.668 642.626C497.599 642.26 498.871 641.289 498.916 640.747C498.922 640.658 498.901 640.544 498.669 640.453C498.584 640.419 498.498 640.402 498.415 640.402ZM496.363 643.102C496.31 643.102 496.259 643.082 496.222 643.046C496.172 642.998 496.154 642.931 496.173 642.868C496.202 642.777 496.863 640.628 497.949 640.137C498.238 640.008 498.532 640 498.82 640.112C499.278 640.292 499.322 640.605 499.308 640.775C499.232 641.665 497.294 642.895 496.409 643.097C496.395 643.1 496.379 643.102 496.363 643.102" fill="#1A2E35"/>
<path d="M511.306 646.148C512.643 647.365 513.812 648.037 514.483 647.953C514.718 647.926 514.896 647.807 515.028 647.59C515.079 647.506 515.083 647.434 515.042 647.358C514.759 646.828 512.795 646.372 511.306 646.148ZM514.371 648.328C513.18 648.328 511.519 646.895 510.61 646.014C510.552 645.958 510.538 645.874 510.575 645.804C510.613 645.735 510.708 645.695 510.776 645.704C511.194 645.755 514.874 646.219 515.394 647.193C515.494 647.38 515.485 647.581 515.37 647.772C515.175 648.093 514.892 648.276 514.532 648.319C514.48 648.325 514.426 648.328 514.371 648.328Z" fill="#1A2E35"/>
<path d="M511.149 645.745C512.331 645.807 514.221 645.44 514.467 644.958C514.488 644.917 514.551 644.796 514.278 644.575C514.049 644.393 513.785 644.316 513.479 644.342C512.59 644.415 511.6 645.297 511.149 645.745ZM511.422 646.117C511.15 646.117 510.907 646.101 510.715 646.067C510.647 646.055 510.591 646.011 510.566 645.95C510.543 645.889 510.555 645.82 510.599 645.769C510.661 645.701 512.091 644.086 513.444 643.976C513.868 643.945 514.225 644.05 514.532 644.296C514.949 644.629 514.919 644.926 514.822 645.115C514.486 645.776 512.658 646.117 511.422 646.117Z" fill="#1A2E35"/>
<path d="M496.654 642.06L487.68 639.685C487.353 639.598 487.024 639.741 486.889 640.026L483.859 646.399C483.545 647.06 483.98 647.88 484.738 648.067C487.881 648.844 489.441 649.072 493.387 650.117C495.815 650.759 499.29 651.933 502.643 652.821C505.921 653.689 507.111 650.653 505.8 650.003C499.921 647.086 499.457 645.089 497.849 642.873C497.56 642.473 497.131 642.187 496.654 642.06Z" fill="#3C91E6"/>
<path d="M510.854 644.859L503.195 639.881C502.917 639.7 502.556 639.734 502.328 639.964L497.246 645.067C496.719 645.596 496.847 646.504 497.498 646.911C500.2 648.603 501.596 649.293 504.963 651.482C507.036 652.829 511.173 655.815 514.034 657.675C516.833 659.494 519.013 656.987 517.999 655.973C513.455 651.425 512.452 648.576 511.703 645.992C511.567 645.525 511.263 645.124 510.854 644.859Z" fill="#3C91E6"/>
<path d="M504.646 635.643L490.834 629.217L492.264 625.721L507.007 632.486L504.646 635.643Z" fill="#3C91E6"/>
<path d="M486.709 514.547L485.54 517.37C485.422 517.59 485.699 517.812 486.088 517.812L521.091 517.818C521.395 517.818 521.647 517.679 521.666 517.5L521.971 514.676C521.991 514.48 521.728 514.315 521.395 514.315L487.258 514.31C487.007 514.31 486.785 514.406 486.709 514.547Z" fill="#3C91E6"/>
<g opacity="0.399994">
<g opacity="0.399994">
<path opacity="0.399994" d="M486.709 514.547L485.54 517.37C485.422 517.59 485.699 517.812 486.088 517.812L521.091 517.818C521.395 517.818 521.647 517.679 521.666 517.5L521.971 514.676C521.991 514.48 521.728 514.315 521.395 514.315L487.258 514.31C487.007 514.31 486.785 514.406 486.709 514.547Z" fill="white"/>
</g>
</g>
<path d="M492.214 518.119L491.299 518.119C491.116 518.119 490.979 518.032 490.991 517.924L491.421 514.256C491.433 514.148 491.592 514.06 491.774 514.06L492.688 514.06C492.871 514.06 493.009 514.148 492.997 514.256L492.567 517.924C492.554 518.032 492.396 518.119 492.214 518.119Z" fill="#3C91E6"/>
<path d="M513.803 518.122L512.889 518.122C512.707 518.122 512.569 518.035 512.582 517.927L513.011 514.259C513.023 514.151 513.182 514.063 513.364 514.063L514.279 514.063C514.461 514.063 514.6 514.151 514.587 514.259L514.157 517.927C514.145 518.035 513.985 518.122 513.803 518.122Z" fill="#3C91E6"/>
<path d="M463.039 683.856C462.987 684.919 475.636 685.783 491.29 685.786C506.944 685.789 519.677 684.93 519.729 683.867C519.781 682.804 507.134 681.94 491.479 681.937C475.824 681.934 463.091 682.793 463.039 683.856Z" fill="#F5F5F5"/>
<path d="M508.658 681.149C503.643 679.786 498.124 678.03 494.709 676.162C494.615 676.111 494.514 676.073 494.418 676.026L494.421 654.812L504.507 654.814C506.175 654.814 507.528 653.549 507.528 651.989C507.528 650.427 506.176 649.162 504.508 649.162L494.422 649.16L494.436 552.315L488.396 552.314L488.382 649.159L478.294 649.158C476.626 649.158 475.274 650.423 475.274 651.984C475.273 653.544 476.625 654.809 478.293 654.81L488.381 654.811L488.378 676.025C488.28 676.072 488.18 676.11 488.085 676.161C484.669 678.028 479.15 679.783 474.134 681.144C472.489 681.59 472.836 683.858 474.55 683.858L491.396 683.86L508.243 683.863C509.957 683.863 510.304 681.596 508.658 681.149" fill="#E1E1E1"/>
<path d="M510.227 563.188L472.599 563.182C469.585 563.182 467.119 560.874 467.12 558.052L467.121 547.586C467.122 544.764 469.588 542.457 472.602 542.458L510.23 542.463C513.244 542.463 515.71 544.771 515.71 547.593L515.708 558.059C515.708 560.881 513.241 563.188 510.227 563.188Z" fill="#3C91E6"/>
<path d="M472.253 563.182L472.253 564.983C472.253 566.469 473.98 567.684 476.091 567.684L506.734 567.689C508.845 567.689 510.573 566.474 510.573 564.988L510.573 563.188L472.253 563.182Z" fill="#3C91E6"/>
<g opacity="0.300003">
<g opacity="0.300003">
<path opacity="0.300003" d="M472.253 563.182L472.253 564.983C472.253 566.469 473.98 567.684 476.091 567.684L506.734 567.689C508.845 567.689 510.573 566.474 510.573 564.988L510.573 563.188L472.253 563.182Z" fill="white"/>
</g>
</g>
<path d="M655.488 554.58C655.674 547.088 649.652 540.912 642.157 540.911L589.819 540.904C582.582 540.903 576.664 546.674 576.484 553.909V553.909C576.298 561.402 582.32 567.577 589.815 567.578L642.153 567.586C649.39 567.587 655.308 561.816 655.488 554.58V554.58Z" fill="#FF8B7B"/>
<path d="M602.824 559.869L594.49 559.868L594.491 547.965L596.874 547.965L596.872 557.486L602.824 557.487L602.824 559.869ZM612.188 555.347C612.188 556.011 612.068 556.631 611.83 557.206C611.592 557.776 611.269 558.271 610.859 558.692C610.449 559.107 609.968 559.436 609.415 559.679C608.867 559.917 608.277 560.036 607.646 560.036C607.021 560.036 606.432 559.917 605.878 559.679C605.331 559.435 604.849 559.106 604.434 558.691C604.025 558.27 603.701 557.775 603.463 557.205C603.225 556.629 603.106 556.01 603.107 555.346C603.107 554.67 603.226 554.045 603.464 553.47C603.702 552.894 604.026 552.399 604.435 551.984C604.85 551.563 605.332 551.234 605.88 550.996C606.433 550.758 607.022 550.64 607.648 550.64C608.279 550.64 608.868 550.753 609.416 550.98C609.969 551.202 610.451 551.52 610.86 551.935C611.269 552.345 611.593 552.84 611.831 553.421C612.069 553.997 612.188 554.639 612.188 555.347ZM609.905 555.347C609.905 554.981 609.844 554.652 609.722 554.359C609.606 554.06 609.446 553.805 609.241 553.595C609.036 553.379 608.796 553.216 608.519 553.105C608.248 552.989 607.957 552.931 607.647 552.931C607.338 552.931 607.044 552.989 606.768 553.105C606.496 553.216 606.258 553.379 606.054 553.595C605.854 553.805 605.697 554.059 605.58 554.358C605.464 554.651 605.406 554.981 605.406 555.346C605.406 555.689 605.464 556.007 605.58 556.301C605.696 556.594 605.854 556.848 606.053 557.064C606.258 557.28 606.496 557.452 606.767 557.579C607.044 557.701 607.337 557.762 607.647 557.762C607.957 557.762 608.247 557.704 608.518 557.588C608.795 557.471 609.036 557.308 609.241 557.098C609.445 556.888 609.606 556.633 609.722 556.334C609.844 556.036 609.905 555.706 609.905 555.347ZM619.766 555.348C619.766 555.038 619.705 554.739 619.584 554.451C619.468 554.158 619.307 553.901 619.102 553.679C618.898 553.453 618.657 553.273 618.38 553.14C618.109 553.001 617.819 552.932 617.509 552.932C617.199 552.932 616.906 552.985 616.629 553.09C616.358 553.195 616.12 553.35 615.915 553.554C615.716 553.759 615.558 554.014 615.442 554.318C615.325 554.617 615.267 554.96 615.267 555.347C615.267 555.718 615.325 556.053 615.441 556.352C615.558 556.645 615.715 556.897 615.914 557.107C616.119 557.318 616.357 557.481 616.628 557.597C616.905 557.708 617.198 557.763 617.508 557.763C617.818 557.763 618.109 557.697 618.38 557.564C618.656 557.426 618.897 557.246 619.102 557.025C619.307 556.798 619.467 556.54 619.584 556.253C619.705 555.959 619.766 555.658 619.766 555.348ZM622.048 558.752C622.048 559.377 621.929 559.964 621.691 560.511C621.453 561.059 621.127 561.538 620.712 561.947C620.302 562.357 619.821 562.68 619.267 562.918C618.719 563.156 618.133 563.275 617.507 563.275L616.37 563.258L616.37 560.992L617.491 561.009C617.845 561.009 618.147 560.962 618.396 560.868C618.645 560.779 618.855 560.655 619.027 560.494C619.198 560.339 619.334 560.16 619.434 559.955C619.539 559.75 619.622 559.534 619.683 559.307C619.594 559.451 619.467 559.57 619.301 559.664C619.135 559.753 618.949 559.825 618.745 559.88C618.545 559.941 618.335 559.982 618.114 560.004C617.898 560.027 617.696 560.038 617.508 560.038C616.882 560.038 616.293 559.93 615.74 559.714C615.192 559.498 614.711 559.191 614.296 558.792C613.886 558.388 613.562 557.895 613.325 557.314C613.087 556.733 612.968 556.077 612.968 555.347C612.968 554.677 613.087 554.055 613.325 553.479C613.563 552.904 613.887 552.406 614.297 551.985C614.712 551.565 615.193 551.236 615.741 550.998C616.294 550.76 616.884 550.641 617.509 550.641C617.797 550.641 618.082 550.677 618.364 550.749C618.646 550.821 618.92 550.921 619.186 551.048C619.451 551.175 619.703 551.325 619.941 551.496C620.185 551.668 620.411 551.853 620.622 552.053L621.502 550.999L622.05 550.999L622.048 558.752ZM626.406 559.873L624.024 559.873L624.026 547.969L626.408 547.97L626.406 559.873ZM630.648 559.873L628.382 559.873L628.383 550.983L628.931 550.983L629.678 551.846C630.043 551.515 630.455 551.26 630.915 551.083C631.38 550.9 631.864 550.809 632.367 550.809C632.91 550.809 633.422 550.915 633.903 551.125C634.385 551.33 634.805 551.615 635.165 551.98C635.524 552.34 635.807 552.763 636.011 553.25C636.221 553.732 636.326 554.246 636.326 554.794L636.326 559.874L634.06 559.874L634.06 554.794C634.06 554.561 634.016 554.343 633.928 554.138C633.839 553.928 633.717 553.745 633.562 553.59C633.407 553.435 633.228 553.313 633.023 553.225C632.818 553.136 632.6 553.092 632.367 553.092C632.129 553.092 631.905 553.136 631.695 553.225C631.484 553.313 631.302 553.435 631.147 553.59C630.992 553.745 630.87 553.927 630.782 554.138C630.693 554.342 630.649 554.561 630.649 554.793L630.648 559.873Z" fill="white"/>
</g>
<defs>
<linearGradient id="paint0_linear" x1="516.056" y1="-0.559997" x2="528.609" y2="1032.44" gradientUnits="userSpaceOnUse">
<stop stop-color="#3C91E6"/>
<stop offset="1" stop-color="#F25F5C" stop-opacity="0.36"/>
</linearGradient>
<clipPath id="clip0">
<rect x="352.036" y="270.87" width="529" height="495" transform="rotate(0.00831682 352.036 270.87)" fill="white"/>
</clipPath>
</defs>
</svg>
