<svg width="182" height="45" viewBox="0 0 182 45" fill="none" xmlns="http://www.w3.org/2000/svg">
<g clip-path="url(#clip0)">
<path d="M30.9706 12.9698L28.5445 10.3573L17.636 22.1043L20.062 24.7168L30.9706 12.9698ZM38.2659 10.3573L20.062 29.9603L12.87 22.234L10.444 24.8465L20.062 35.2038L40.7091 12.9698L38.2659 10.3573ZM0.705429 24.8465L10.3235 35.2038L12.7495 32.5913L3.14866 22.234L0.705429 24.8465Z" fill="url(#paint0_linear)"/>
</g>
<path d="M56.264 15.2C57.752 15.2 59.04 15.448 60.128 15.944C61.232 16.44 62.08 17.144 62.672 18.056C63.264 18.968 63.56 20.048 63.56 21.296C63.56 22.528 63.264 23.608 62.672 24.536C62.08 25.448 61.232 26.152 60.128 26.648C59.04 27.128 57.752 27.368 56.264 27.368H52.88V32H48.992V15.2H56.264ZM56.048 24.2C57.216 24.2 58.104 23.952 58.712 23.456C59.32 22.944 59.624 22.224 59.624 21.296C59.624 20.352 59.32 19.632 58.712 19.136C58.104 18.624 57.216 18.368 56.048 18.368H52.88V24.2H56.048ZM77.0398 32L73.7998 27.32H73.6078H70.2238V32H66.3358V15.2H73.6078C75.0958 15.2 76.3838 15.448 77.4718 15.944C78.5758 16.44 79.4238 17.144 80.0158 18.056C80.6078 18.968 80.9038 20.048 80.9038 21.296C80.9038 22.544 80.5998 23.624 79.9918 24.536C79.3998 25.432 78.5518 26.12 77.4478 26.6L81.2158 32H77.0398ZM76.9678 21.296C76.9678 20.352 76.6638 19.632 76.0558 19.136C75.4478 18.624 74.5598 18.368 73.3918 18.368H70.2238V24.224H73.3918C74.5598 24.224 75.4478 23.968 76.0558 23.456C76.6638 22.944 76.9678 22.224 76.9678 21.296ZM92.1202 32.288C90.3762 32.288 88.8002 31.912 87.3922 31.16C86.0002 30.408 84.9042 29.376 84.1042 28.064C83.3202 26.736 82.9282 25.248 82.9282 23.6C82.9282 21.952 83.3202 20.472 84.1042 19.16C84.9042 17.832 86.0002 16.792 87.3922 16.04C88.8002 15.288 90.3762 14.912 92.1202 14.912C93.8642 14.912 95.4322 15.288 96.8242 16.04C98.2162 16.792 99.3122 17.832 100.112 19.16C100.912 20.472 101.312 21.952 101.312 23.6C101.312 25.248 100.912 26.736 100.112 28.064C99.3122 29.376 98.2162 30.408 96.8242 31.16C95.4322 31.912 93.8642 32.288 92.1202 32.288ZM92.1202 28.976C93.1122 28.976 94.0082 28.752 94.8082 28.304C95.6082 27.84 96.2322 27.2 96.6802 26.384C97.1442 25.568 97.3762 24.64 97.3762 23.6C97.3762 22.56 97.1442 21.632 96.6802 20.816C96.2322 20 95.6082 19.368 94.8082 18.92C94.0082 18.456 93.1122 18.224 92.1202 18.224C91.1282 18.224 90.2322 18.456 89.4322 18.92C88.6322 19.368 88.0002 20 87.5362 20.816C87.0882 21.632 86.8642 22.56 86.8642 23.6C86.8642 24.64 87.0882 25.568 87.5362 26.384C88.0002 27.2 88.6322 27.84 89.4322 28.304C90.2322 28.752 91.1282 28.976 92.1202 28.976ZM106.979 32.288C105.843 32.288 104.795 32.08 103.835 31.664C102.891 31.232 102.115 30.624 101.507 29.84L103.667 27.248C104.579 28.48 105.619 29.096 106.787 29.096C108.371 29.096 109.163 28.168 109.163 26.312V18.32H103.259V15.2H113.027V26.096C113.027 28.16 112.515 29.712 111.491 30.752C110.467 31.776 108.963 32.288 106.979 32.288ZM129.875 28.88V32H116.867V15.2H129.563V18.32H120.731V21.968H128.531V24.992H120.731V28.88H129.875ZM140.962 32.288C139.25 32.288 137.698 31.92 136.306 31.184C134.93 30.432 133.842 29.4 133.042 28.088C132.258 26.76 131.866 25.264 131.866 23.6C131.866 21.936 132.258 20.448 133.042 19.136C133.842 17.808 134.93 16.776 136.306 16.04C137.698 15.288 139.258 14.912 140.986 14.912C142.442 14.912 143.754 15.168 144.922 15.68C146.106 16.192 147.098 16.928 147.898 17.888L145.402 20.192C144.266 18.88 142.858 18.224 141.178 18.224C140.138 18.224 139.21 18.456 138.394 18.92C137.578 19.368 136.938 20 136.474 20.816C136.026 21.632 135.802 22.56 135.802 23.6C135.802 24.64 136.026 25.568 136.474 26.384C136.938 27.2 137.578 27.84 138.394 28.304C139.21 28.752 140.138 28.976 141.178 28.976C142.858 28.976 144.266 28.312 145.402 26.984L147.898 29.288C147.098 30.264 146.106 31.008 144.922 31.52C143.738 32.032 142.418 32.288 140.962 32.288ZM153.839 18.368H148.463V15.2H163.103V18.368H157.727V32H153.839V18.368Z" fill="#D3E0F1"/>
<defs>
<linearGradient id="paint0_linear" x1="20.7073" y1="10.3573" x2="20.7073" y2="35.2038" gradientUnits="userSpaceOnUse">
<stop stop-color="#3C91E6"/>
<stop offset="1" stop-color="#FFD4D3"/>
</linearGradient>
<clipPath id="clip0">
<rect width="39" height="44.468" fill="white"/>
</clipPath>
</defs>
</svg>
